<svg width="17" height="16" viewBox="0 0 17 16" fill="none" xmlns="http://www.w3.org/2000/svg">
<path d="M15.1668 5.44144V5.49011C15.1668 6.06344 15.1668 6.35078 15.0288 6.58544C14.8908 6.82011 14.6395 6.95944 14.1382 7.23878L13.6095 7.53211C13.9735 6.30011 14.0955 4.97611 14.1402 3.84411L14.1468 3.69678L14.1482 3.66211C14.5822 3.81278 14.8262 3.92544 14.9782 4.13611C15.1668 4.39811 15.1668 4.74611 15.1668 5.44144ZM1.8335 5.44144V5.49011C1.8335 6.06344 1.8335 6.35078 1.9715 6.58544C2.1095 6.82011 2.36083 6.95944 2.86216 7.23878L3.3915 7.53211C3.02683 6.30011 2.90483 4.97611 2.86016 3.84411L2.8535 3.69678L2.85283 3.66211C2.41816 3.81278 2.17416 3.92544 2.02216 4.13611C1.8335 4.39811 1.8335 4.74678 1.8335 5.44144Z" fill="#F3B64C"/>
<path fill-rule="evenodd" clip-rule="evenodd" d="M11.4181 1.56449C10.4535 1.40649 9.47749 1.32911 8.50008 1.33316C7.31142 1.33316 6.33142 1.43783 5.58209 1.56449C4.82275 1.69249 4.44342 1.75649 4.12609 2.14716C3.80942 2.53783 3.82609 2.95983 3.85942 3.80383C3.97475 6.70249 4.60009 10.3238 8.00008 10.6438V12.9998H7.04675C6.89269 12.9999 6.74342 13.0534 6.62431 13.1511C6.5052 13.2488 6.42361 13.3848 6.39342 13.5358L6.26675 14.1665H4.50009C4.36748 14.1665 4.2403 14.2192 4.14653 14.3129C4.05276 14.4067 4.00009 14.5339 4.00009 14.6665C4.00009 14.7991 4.05276 14.9263 4.14653 15.02C4.2403 15.1138 4.36748 15.1665 4.50009 15.1665H12.5001C12.6327 15.1665 12.7599 15.1138 12.8536 15.02C12.9474 14.9263 13.0001 14.7991 13.0001 14.6665C13.0001 14.5339 12.9474 14.4067 12.8536 14.3129C12.7599 14.2192 12.6327 14.1665 12.5001 14.1665H10.7334L10.6068 13.5358C10.5766 13.3848 10.495 13.2488 10.3759 13.1511C10.2568 13.0534 10.1075 12.9999 9.95342 12.9998H9.00008V10.6438C12.4001 10.3238 13.0261 6.70316 13.1408 3.80383C13.1741 2.95983 13.1914 2.53716 12.8741 2.14716C12.5568 1.75649 12.1774 1.69249 11.4181 1.56449Z" fill="#F3B64C"/>
</svg>
